<svg xmlns="http://www.w3.org/2000/svg" viewBox="0 0 90 15">
    <g fill="#61DAFB">
        <path fill-rule="evenodd" d="M90 .07s-.763 5.018-.9 5.898c-1.078 6.88-2.312 8.935-7.244 9.03-2.035.04-3.263-.802-3.855-1.894-1.214 1.365-2.727 1.894-4.455 1.894-3.268 0-4.597-2.03-4.057-5.287l.933-5.975c.082-.474.008-.69-.505-.69H69L69.51.01 72.033 0c2.354 0 3.232 1.186 2.8 3.637l-.972 5.902c-.135.918-.182 1.866 1.006 1.866.945 0 1.66-.74 1.923-2.132l1.544-9.21L82.72.07l-1.635 9.55c-.193 1.258.063 1.82.903 1.81 1.93-.02 2.05-2.206 2.775-6.275l.82-5.085H90zM36.073 11.412c-.087.475-.004.634.645.634h.978L37.173 15h-2.82c-1.77 0-2.363-.754-2.45-1.87C31.06 14.47 29.3 15 27.643 15 24.13 15 23 12.724 23 9.933 23 4.27 26.174.026 32.594 0H38l-1.927 11.412zM31.82 9.238l1.044-6.013-1.32.018c-2.788 0-3.806 4.072-3.806 6.305 0 1.2.52 2.17 1.71 2.17 1.163 0 1.94-.677 2.373-2.48zM19.962 12.064c-.507 0-.488-.278-.407-.696l.987-6.58c.535-3.21-.472-4.786-3.037-4.786-1.843 0-3.128.81-4.09 2.29C13.068.587 11.68 0 10.317 0c-1.51 0-3.035.694-4.026 2.205C6.38 1.79 6.206.002 3.604.002L.913 0l-.5 3.04.88.005c.515 0 .605.24.524.713l-.032.19L0 14.958h4.37l1.433-8.572c.294-1.564.853-2.7 2.055-2.7 1.07 0 1.176.81.962 2.04l-1.5 9.214h4.373l1.385-8.58c.293-1.814 1.032-2.7 2.02-2.7 1.203 0 1.096 1.004.962 2.037l-.912 5.944c-.35 2.313.454 3.374 2.617 3.36h2.75L21 12.063h-1.038zM43.996 8.74c0 1.59.665 2.585 2.262 2.628 1.228.032 2.63-.106 3.952-.57l-.624 3.73c-1.71.382-2.978.472-4.632.472C41.207 15 39 13.06 39 9.353c0-6.607 4.53-9.346 9.62-9.35L52 0l-.647 3.753-2.6-.006c-3.524-.024-4.757 1.954-4.757 4.992M65.058 11.412c-.087.475-.003.634.644.634h.977L66.156 15l-2.714-.004c-1.77 0-2.463-.75-2.55-1.866-.842 1.34-2.6 1.87-4.253 1.87C53.13 15 52 12.724 52 9.933 52 4.27 55.17.026 61.583 0H67l-1.942 11.412zM60.81 9.238l1.043-6.013-1.317.018c-2.786 0-3.804 4.072-3.804 6.305 0 1.2.52 2.17 1.71 2.17 1.16 0 1.937-.677 2.37-2.48z"/>

    </g>
</svg>
